<svg id="Layer_1" data-name="Layer 1" xmlns="http://www.w3.org/2000/svg" viewBox="0 0 97.577 11.46">
  <defs>
    <style>
      .cls-1 {
      fill: #fff;
      }
    </style>
  </defs>
  <title>14cbedff-3eed-4f8f-abb7-fffe92867ded</title>
  <g>
    <path class="cls-1"
          d="M89.22,6.874l1.819-.159a3.153,3.153,0,1,1,.124-1.065,2.306,2.306,0,0,1-.005.492l-4.489.393a1.257,1.257,0,0,0,1.414.989,1.417,1.417,0,0,0,1.06-.56A.6.6,0,0,1,89.22,6.874Zm.087-1.767a1.311,1.311,0,0,0-1.443-.916,1.282,1.282,0,0,0-1.249,1.151Z"/>
    <path class="cls-1"
          d="M67.715,4.191a1.622,1.622,0,1,1-1.622,1.622,1.624,1.624,0,0,1,1.622-1.622m0-1.542a3.164,3.164,0,1,0,3.164,3.164A3.164,3.164,0,0,0,67.715,2.65Z"/>
    <path class="cls-1"
          d="M54.893,8.808,55.53.648A6.958,6.958,0,0,1,56.736.564a6.743,6.743,0,0,1,1.193.084L58.7,3.7q.324,1.332.456,2.148h.071q.132-.816.456-2.148L60.45.648a6.914,6.914,0,0,1,1.2-.084,6.7,6.7,0,0,1,1.188.084l.636,8.16a3.218,3.218,0,0,1-.863.1,5.125,5.125,0,0,1-.864-.06l-.192-3.48q-.1-1.656-.1-2.724h-.084L60.126,7.62a5.447,5.447,0,0,1-.93.06,5.9,5.9,0,0,1-.954-.06L57.006,2.64h-.084q-.023,1.464-.1,2.724l-.192,3.48a5.125,5.125,0,0,1-.864.06A3.366,3.366,0,0,1,54.893,8.808Z"/>
    <path class="cls-1"
          d="M77.094,4.86v2.5a2.089,2.089,0,0,0,.288,1.188,1.611,1.611,0,0,1-1.05.384.983.983,0,0,1-.8-.276,1.321,1.321,0,0,1-.223-.84V5.2a1.33,1.33,0,0,0-.12-.648.446.446,0,0,0-.42-.2,1.386,1.386,0,0,0-.983.468v4.02A4.716,4.716,0,0,1,72.9,8.9a5.113,5.113,0,0,1-.906-.072V2.856l.084-.084h.672a.9.9,0,0,1,.948.72,2.669,2.669,0,0,1,1.7-.744,1.477,1.477,0,0,1,1.26.576A2.5,2.5,0,0,1,77.094,4.86Z"/>
    <path class="cls-1"
          d="M81.3,6.408l-.4.012V8.832a4.606,4.606,0,0,1-.864.072,5,5,0,0,1-.888-.072V.084L79.241,0h.7a.973.973,0,0,1,.75.246,1.243,1.243,0,0,1,.222.834V4.944h.216a.369.369,0,0,0,.336-.216l.685-1.26a1.062,1.062,0,0,1,1.008-.66q.347,0,1,.024l.071.1-.972,1.824a1.885,1.885,0,0,1-.6.672,1.7,1.7,0,0,1,1.02,1.044l.3.888a4.932,4.932,0,0,0,.307.708.941.941,0,0,0,.27.3,1.512,1.512,0,0,1-1.2.564.839.839,0,0,1-.582-.18,1.534,1.534,0,0,1-.354-.636l-.36-1.056a1.225,1.225,0,0,0-.306-.516A.675.675,0,0,0,81.3,6.408Z"/>
    <path class="cls-1"
          d="M97.577,3.036l-1.5,5.628a5.042,5.042,0,0,1-1,2.1,2.437,2.437,0,0,1-1.9.7,4.322,4.322,0,0,1-1.416-.24V11a2.268,2.268,0,0,1,.09-.51,1.213,1.213,0,0,1,.27-.54,3.946,3.946,0,0,0,1.057.18,1.231,1.231,0,0,0,1.212-1.044l.048-.168q-1.008-.024-1.2-.744L91.805,2.988a2.4,2.4,0,0,1,.989-.24,1.049,1.049,0,0,1,.666.168,1.108,1.108,0,0,1,.313.6l.6,2.376q.1.348.288,1.6a.094.094,0,0,0,.108.084l1.08-4.716a3.485,3.485,0,0,1,.786-.072,2.786,2.786,0,0,1,.882.132Z"/>
  </g>
  <g>
    <path class="cls-1"
          d="M0,8.937V.741A1.882,1.882,0,0,1,.414.705,2.229,2.229,0,0,1,.852.741v8.2a2.231,2.231,0,0,1-.432.036A2.056,2.056,0,0,1,0,8.937Z"/>
    <path class="cls-1"
          d="M8.232,4.809V7.833a2.871,2.871,0,0,0,.12,1,.7.7,0,0,1-.517.18q-.42,0-.42-.54V5.085a2.2,2.2,0,0,0-.191-1.074.747.747,0,0,0-.7-.318,2.332,2.332,0,0,0-1.044.27,2.7,2.7,0,0,0-.888.69V8.937a1.994,1.994,0,0,1-.408.036,1.987,1.987,0,0,1-.408-.036V3.093l.072-.072h.312a.384.384,0,0,1,.348.132.831.831,0,0,1,.085.432v.24a2.983,2.983,0,0,1,.966-.636A2.908,2.908,0,0,1,6.7,2.949a1.335,1.335,0,0,1,1.17.516A2.272,2.272,0,0,1,8.232,4.809Z"/>
    <path class="cls-1"
          d="M11.147,8.937V3.669l-1.031.012a1.473,1.473,0,0,1-.036-.312,1.639,1.639,0,0,1,.036-.324l1,.024q-.085-1.115-.084-1.272A1.769,1.769,0,0,1,11.472.555,1.538,1.538,0,0,1,12.666.069a3.728,3.728,0,0,1,1.386.252.818.818,0,0,1-.2.564A3.881,3.881,0,0,0,12.756.693a.883.883,0,0,0-.708.294,1.226,1.226,0,0,0-.252.822,9.977,9.977,0,0,0,.1,1.26l1.776-.024a1.716,1.716,0,0,1,.036.324,1.54,1.54,0,0,1-.036.312l-1.716-.012V8.937a2.258,2.258,0,0,1-.8,0Z"/>
    <path class="cls-1"
          d="M32.352,3.045a1.716,1.716,0,0,1,.036.324,1.54,1.54,0,0,1-.036.312l-1.524-.012v4.14q0,.492.468.492h.925a1,1,0,0,1,.071.372,1.405,1.405,0,0,1-.012.24,8.879,8.879,0,0,1-1.122.072,1.268,1.268,0,0,1-.846-.246.87.87,0,0,1-.288-.7V3.669l-.828.012a1.336,1.336,0,0,1-.036-.306,1.664,1.664,0,0,1,.036-.33l.828.012v-1.3a.794.794,0,0,1,.09-.432.4.4,0,0,1,.354-.132h.288l.072.072v1.8Z"/>
    <path class="cls-1"
          d="M35.472,3.837v5.1a2.324,2.324,0,0,1-.816,0V4.257a.7.7,0,0,0-.108-.456.5.5,0,0,0-.384-.12h-.107a1.288,1.288,0,0,1-.036-.294,1.616,1.616,0,0,1,.036-.318,4.4,4.4,0,0,1,.575-.048h.1a.7.7,0,0,1,.546.216A.856.856,0,0,1,35.472,3.837ZM34.379,1.881a.986.986,0,0,1-.084-.438.837.837,0,0,1,.084-.414.853.853,0,0,1,.511-.12.8.8,0,0,1,.5.12.837.837,0,0,1,.084.414.986.986,0,0,1-.084.438A.707.707,0,0,1,34.9,2,.874.874,0,0,1,34.379,1.881Z"/>
    <path class="cls-1"
          d="M49.139,4.809V7.833a2.871,2.871,0,0,0,.12,1,.7.7,0,0,1-.517.18q-.42,0-.42-.54V5.085a2.2,2.2,0,0,0-.191-1.074.747.747,0,0,0-.7-.318,2.332,2.332,0,0,0-1.044.27,2.7,2.7,0,0,0-.888.69V8.937a2.324,2.324,0,0,1-.816,0V3.093l.072-.072h.312a.384.384,0,0,1,.348.132.831.831,0,0,1,.085.432v.24a2.983,2.983,0,0,1,.966-.636,2.908,2.908,0,0,1,1.134-.24,1.335,1.335,0,0,1,1.17.516A2.272,2.272,0,0,1,49.139,4.809Z"/>
    <path class="cls-1"
          d="M40.075,3.555a2.364,2.364,0,1,1-2.364,2.364,2.367,2.367,0,0,1,2.364-2.364m0-.8a3.164,3.164,0,1,0,3.164,3.164,3.164,3.164,0,0,0-3.164-3.164Z"/>
    <path class="cls-1"
          d="M25.315,8.285a2.349,2.349,0,0,1-2.04-1.18,2.335,2.335,0,0,1,0-2.36,2.344,2.344,0,0,1,4.08,0l.7-.4a3.16,3.16,0,1,0,0,3.16l-.7-.4A2.35,2.35,0,0,1,25.315,8.285Z"/>
    <g>
      <path class="cls-1"
            d="M17.87,8.285a2.365,2.365,0,1,1,2.36-2.37h.8a3.162,3.162,0,0,0-5.9-1.58,3.018,3.018,0,0,0-.43,1.58,3.165,3.165,0,0,0,5.91,1.58l-.69-.39A2.378,2.378,0,0,1,17.87,8.285Z"/>
      <polygon class="cls-1" points="15.286 5.718 20.514 5.261 21.03 5.915 15.347 6.412 15.286 5.718"/>
    </g>
  </g>
</svg>
