<svg id="Layer_1" data-name="Layer 1" xmlns="http://www.w3.org/2000/svg" viewBox="0 0 156.257 365.565">
  <defs>
    <style>
      .cls-1 {
        fill: #333;
      }

      .cls-2 {
        fill: none;
        stroke-linecap: round;
        stroke-miterlimit: 10;
        stroke-width: 7px;
      }

      .cls-2, .cls-3 {
        stroke: #333;
      }

      .cls-3, .cls-4 {
        fill: #fff;
      }

      .cls-3 {
        stroke-linejoin: round;
        stroke-width: 3.414px;
      }
    </style>
  </defs>
  <title>b3a9e365-fb04-4c50-b367-8e271c3d64cf</title>
  <g>
    <path class="cls-1" d="M66.263,357.273l-2.949,1.6c6.78-31.3,12.151-63.078,15.961-94.438,7.794-64.145,5.175-92.348,2.022-109.753a257.537,257.537,0,0,0-12.875-46.052l4.67-1.787A262.6,262.6,0,0,1,86.217,153.8c3.216,17.751,5.9,46.438-1.978,111.247-3.658,30.1-8.745,60.578-15.131,90.662C68.808,357.116,66.568,355.864,66.263,357.273Z" transform="translate(0 0)"/>
    <path class="cls-1" d="M59.263,357.273c-.306-1.4-2.558.027-2.859-1.378-6.45-30.142-11.579-60.684-15.256-90.851-7.873-64.6-5.193-93.386-1.979-111.245A259.42,259.42,0,0,1,52.3,106.845l4.668,1.793A254.371,254.371,0,0,0,44.09,154.684C40.938,172.2,38.319,200.5,46.111,264.438c3.83,31.42,9.242,63.248,16.088,94.6Z" transform="translate(0 0)"/>
    <path class="cls-1" d="M57.089,357.8h.076a2.107,2.107,0,0,1-.074,4.212h-.077a2.107,2.107,0,0,1,.074-4.212m0-3.551h0a5.657,5.657,0,0,0-.2,11.311c.067,0,.135,0,.2,0a5.657,5.657,0,0,0,.2-11.311c-.069,0-.137,0-.2,0Z" transform="translate(0 0)"/>
    <path class="cls-1" d="M68.255,357.467h.077a2.107,2.107,0,0,1-.074,4.212h-.077a2.107,2.107,0,0,1,.074-4.212m0-3.551h0a5.657,5.657,0,0,0-.2,11.311c.068,0,.136,0,.2,0a5.657,5.657,0,0,0,.2-11.311c-.068,0-.136,0-.2,0Z" transform="translate(0 0)"/>
    <path class="cls-1" d="M107.948,79.279a15.664,15.664,0,1,0-10.474-29.4c-.247-.342-.5-.681-.751-1.015a3.407,3.407,0,0,1,.227-4.33l-.007-.007a2.792,2.792,0,0,0,.261-.319h0a9.663,9.663,0,0,1,7-4.217l-.025-.025a5.982,5.982,0,1,0-6.533-6.533l-.025-.025a9.664,9.664,0,0,1-4.218,7h0a2.785,2.785,0,0,0-.319.261l-.007-.007a3.41,3.41,0,0,1-4.38.2l.041.041c-.026-.02-.054-.038-.081-.059-13.028,9.5-39.367,11.519-46.334,12.052a145,145,0,0,1-17.255.244,43.669,43.669,0,0,0-2.813,5.576l.015-.056a3.41,3.41,0,0,1-3.891,2.021l0,.009a2.784,2.784,0,0,0-.407-.066v0a9.663,9.663,0,0,1-7.15-3.949v0a5.982,5.982,0,1,0-2.408,8.987v0a9.664,9.664,0,0,1,8.167.155v0a2.779,2.779,0,0,0,.385.146l0,.009a3.408,3.408,0,0,1,2.361,3.638c-.055.416-.1.834-.143,1.253A15.664,15.664,0,1,0,27.172,100.7a43.389,43.389,0,0,0,61.573,8.993,3.407,3.407,0,0,1,4.331.226l.007-.007a2.79,2.79,0,0,0,.319.261h0a9.664,9.664,0,0,1,4.218,7l.025-.025a5.982,5.982,0,1,0,6.533-6.533l.025-.025a9.664,9.664,0,0,1-7-4.218h0a2.773,2.773,0,0,0-.261-.319l.007-.007a3.41,3.41,0,0,1-.2-4.38l-.042.042a43.473,43.473,0,0,0,8.756-21.986A15.677,15.677,0,0,0,107.948,79.279Zm-5.815-46.666a2.026,2.026,0,1,1,0,2.865A2.026,2.026,0,0,1,102.134,32.613ZM7.94,60.716a2.026,2.026,0,1,1-1.432-2.481A2.026,2.026,0,0,1,7.94,60.716ZM22.87,94.334A8.186,8.186,0,1,1,18.633,78.52c.145-.039.29-.063.436-.093A43.217,43.217,0,0,0,23.294,94.2C23.153,94.243,23.015,94.3,22.87,94.334ZM73.459,56.847c1.156,0,2.364.041,3.673.144.906.072,1.881.15,2.889.245a3.512,3.512,0,0,1,.2,1.133,3.559,3.559,0,0,1-7.118,0A3.518,3.518,0,0,1,73.459,56.847Zm-21.965,2a3.54,3.54,0,0,1-7.027-.04C46.587,58.9,48.922,58.925,51.494,58.842ZM72.711,93.036c-2.934-1-5.277-3.067-10.621-3.129-5.1-.06-7.716,1.769-10.5,2.867A17.754,17.754,0,0,1,44.753,81.1a51.407,51.407,0,0,1,17.672-3.188h.044a51.338,51.338,0,0,1,17.437,3.1A17.758,17.758,0,0,1,72.711,93.036Zm6.04-21.119a17.724,17.724,0,0,1,1.228,4.875,55.345,55.345,0,0,0-17.51-2.885h-.048A54.529,54.529,0,0,0,44.653,76.9a17.715,17.715,0,0,1,1.242-4.98,15.7,15.7,0,0,1-13.552-14.2c1.372.108,2.953.3,4.77.495a11.025,11.025,0,0,0,21.725.105c1.186-.128,2.4-.274,3.67-.455,1.006-.143,2.059-.306,3.172-.459a11.031,11.031,0,0,0,21.829.977A22.341,22.341,0,0,1,91.949,59.9,15.7,15.7,0,0,1,78.751,71.917ZM102.134,115.1a2.026,2.026,0,1,1,0,2.865A2.026,2.026,0,0,1,102.134,115.1Zm-.782-58.72c.141-.046.279-.1.424-.137a8.186,8.186,0,1,1,4.237,15.814c-.145.039-.29.063-.436.093a43.215,43.215,0,0,0-4.226-15.771Z" transform="translate(0 0)"/>
    <g>
      <circle class="cls-1" cx="58.566" cy="68.467" r="2.747"/>
      <circle class="cls-1" cx="66.08" cy="68.467" r="2.747"/>
    </g>
    <path class="cls-1" d="M153.757,100.241a2.509,2.509,0,0,1-.39-.03c-7.083-1.117-14.271-2.3-21.364-3.5-11.655-1.987-23.448-4.121-35.05-6.344a2.5,2.5,0,1,1,.94-4.91c11.569,2.216,23.328,4.344,34.95,6.324,5.583.952,11.225,1.885,16.828,2.783A193.23,193.23,0,0,0,136.64,70.071,193.128,193.128,0,0,0,120.351,47.86c-.894-1.053-.141-1.692.911-2.587s2-1.7,2.9-.651a198.281,198.281,0,0,1,16.711,22.789,198.17,198.17,0,0,1,15.192,29.371,2.5,2.5,0,0,1-2.308,3.459Z" transform="translate(0 0)"/>
    <path class="cls-1" d="M119.649,40.893h.077a2.107,2.107,0,0,1-.074,4.212h-.077a2.107,2.107,0,0,1,.074-4.212m0-3.551h0a5.657,5.657,0,0,0-.2,11.311c.067,0,.135,0,.2,0a5.657,5.657,0,0,0,.2-11.311c-.067,0-.135,0-.2,0Z" transform="translate(0 0)"/>
    <path class="cls-1" d="M27.3,246.184c-3.862-21.474-7.122-43.224-9.689-64.645-3.14-26.2-3.5-37.954.761-51.7A86.878,86.878,0,0,1,37.406,97.06l3.7,3.361a81.916,81.916,0,0,0-17.963,30.892c-4.021,12.986-3.67,23.782-.573,49.63,2.369,19.769,5.33,39.818,8.813,59.671.274,1.563-2.4,1.1-2.123,2.659Z" transform="translate(0 0)"/>
    <path class="cls-1" d="M32.255,242.134h.077a2.107,2.107,0,0,1-.074,4.212h-.077a2.107,2.107,0,0,1,.074-4.212m0-3.551h0a5.657,5.657,0,0,0-.2,11.311c.067,0,.135,0,.2,0a5.657,5.657,0,0,0,.2-11.311c-.067,0-.135,0-.2,0Z" transform="translate(0 0)"/>
    <g>
      <path class="cls-2" d="M77.38,119.24a68.087,68.087,0,0,0-17.375-4" transform="translate(0 0)"/>
      <path class="cls-2" d="M47.632,119.24a68.087,68.087,0,0,1,17.375-4" transform="translate(0 0)"/>
      <polygon class="cls-3" points="69.667 120.024 55.429 120.024 55.429 111.207 55.429 111.207 69.667 111.207 69.667 120.024"/>
    </g>
    <path class="cls-1" d="M79.082.339C59.819-3.935,39.256,33.437,18.09,42.908c-1.161.519-6.472,2.811-6.167,4.667.245,1.487,4,2.1,8.5,2.833a49.5,49.5,0,0,0,10,.833,46.5,46.5,0,0,0,13.167-2C53.5,45.854,58.915,36.434,60.923,32.408a82.185,82.185,0,0,1-3,8.667c-.7,1.71-1.43,3.322-2.167,4.833A64.878,64.878,0,0,0,77.85,41.915a64.146,64.146,0,0,0,11.562-5.652c2.3-2.1,5.527-5.772,6.347-10.873C97.4,15.187,88.85,2.506,79.082.339Z" transform="translate(0 0)"/>
    <path class="cls-4" d="M75.508,21.527a18.219,18.219,0,0,0,6.121,2.357c-.239,2.85-1.312,9.695-6.121,11.685-4.809-1.99-5.882-8.835-6.121-11.685A18.219,18.219,0,0,0,75.508,21.527Z" transform="translate(0 0)"/>
  </g>
</svg>
