<svg id="Layer_1" data-name="Layer 1" xmlns="http://www.w3.org/2000/svg" viewBox="0 0 22.468 24.614">
  <defs>
    <style>
      .cls-1 {
      fill: #333;
      }
    </style>
  </defs>
  <title>f16be487-8c04-4779-b803-3b42f7cb3e8c</title>
  <g>
    <circle class="cls-1" cx="10.515" cy="14.064" r="0.526"/>
    <circle class="cls-1" cx="11.953" cy="14.064" r="0.526"/>
    <path class="cls-1"
          d="M21.473,16.9a1.125,1.125,0,0,0-.76-.122l.01-.018a1.85,1.85,0,0,1-1.5-.433l-.005.009a.5.5,0,0,0-.06-.053l0,0a.653.653,0,0,1-.253-.8l0,0c.018-.044.032-.091.049-.135s.022-.06.034-.09a3,3,0,1,0,0-5.9c-.011-.03-.022-.06-.034-.09s-.031-.091-.049-.135l0,0a.653.653,0,0,1,.253-.8l0,0a.5.5,0,0,0,.06-.053l.005.009a1.849,1.849,0,0,1,1.5-.433l-.01-.018a1.125,1.125,0,0,0,.76-.122,1.145,1.145,0,0,0-1.145-1.983,1.124,1.124,0,0,0-.486.6l-.01-.018A1.849,1.849,0,0,1,18.706,7.4l.005.009a.507.507,0,0,0-.076.026l0,0a.653.653,0,0,1-.819-.181l0,0c-.029-.038-.062-.073-.092-.11q-.088-.111-.18-.218c-.052-.061-.1-.123-.155-.182s-.13-.136-.2-.2S17.068,6.41,17,6.347s-.134-.133-.2-.2-.122-.1-.182-.155-.144-.121-.218-.18c-.037-.03-.072-.063-.11-.092l0,0a.653.653,0,0,1-.181-.819l0,0a.491.491,0,0,0,.026-.076l.009.005a1.849,1.849,0,0,1,1.084-1.126l-.018-.01a1.125,1.125,0,0,0,.6-.486,1.145,1.145,0,1,0-1.983-1.145,1.125,1.125,0,0,0-.122.76l-.018-.01a1.85,1.85,0,0,1-.433,1.5l.009.005a.509.509,0,0,0-.053.06l0,0a.653.653,0,0,1-.8.253l0,0c-.044-.018-.091-.032-.135-.049l-.149-.056c.309-.4.534-.842.455-.908s-.279.27-.766.493a1.591,1.591,0,0,1-.413.126c.044-.121.086-.249.123-.385.214-.788.25-1.691.088-1.731-.127-.032-.193.518-.682,1.1a2.53,2.53,0,0,1-.93.694.643.643,0,0,1-.24-.467h0a.5.5,0,0,0-.016-.078h.011a1.849,1.849,0,0,1,.376-1.517H12.1a1.125,1.125,0,0,0,.274-.719,1.145,1.145,0,1,0-2.29,0,1.125,1.125,0,0,0,.274.719h-.02a1.849,1.849,0,0,1,.376,1.517h.011a.5.5,0,0,0-.016.078h0a.653.653,0,0,1-.566.619h0l-.061.011c.109-.6.035-1.179-.111-1.206s-.16.433-.575.932a2.642,2.642,0,0,1-1.008.7c-.066.024-.132.048-.2.074-.045.018-.091.031-.135.049l0,0a.653.653,0,0,1-.8-.253l0,0a.509.509,0,0,0-.053-.06l.009-.005a1.85,1.85,0,0,1-.433-1.5l-.018.01a1.125,1.125,0,0,0-.122-.76A1.145,1.145,0,1,0,4.661,3.213a1.125,1.125,0,0,0,.6.486l-.018.01A1.849,1.849,0,0,1,6.325,4.835l.009-.005a.491.491,0,0,0,.026.076l0,0a.653.653,0,0,1-.181.819l0,0c-.038.029-.073.062-.11.092Q5.958,5.9,5.851,6c-.061.052-.123.1-.182.155s-.136.13-.2.2-.128.126-.191.191-.133.134-.2.2-.1.122-.155.182-.121.144-.18.218c-.03.037-.063.072-.092.11l0,0a.653.653,0,0,1-.819.181l0,0a.507.507,0,0,0-.076-.026L3.762,7.4A1.849,1.849,0,0,1,2.635,6.314l-.01.018a1.124,1.124,0,0,0-.486-.6A1.145,1.145,0,0,0,.995,7.717a1.125,1.125,0,0,0,.76.122l-.01.018a1.849,1.849,0,0,1,1.5.433l.005-.009a.5.5,0,0,0,.06.053l0,0a.653.653,0,0,1,.253.8l0,0c-.018.044-.032.091-.049.135s-.022.06-.034.09A2.984,2.984,0,0,0,3,9.309a3,3,0,0,0,0,6,2.984,2.984,0,0,0,.485-.049c.011.03.022.06.034.09s.031.091.049.135l0,0a.653.653,0,0,1-.253.8l0,0a.5.5,0,0,0-.06.053l-.005-.009a1.85,1.85,0,0,1-1.5.433l.01.018a1.125,1.125,0,0,0-.76.122A1.145,1.145,0,0,0,2.14,18.879a1.124,1.124,0,0,0,.486-.6l.01.018a1.849,1.849,0,0,1,1.126-1.084l-.005-.009a.5.5,0,0,0,.076-.025l0,0a.653.653,0,0,1,.819.181l0,0c.029.038.062.073.092.11q.088.111.18.218c.052.061.1.123.155.182s.13.136.2.2.126.128.191.191.134.133.2.2.122.1.182.155.144.121.218.18c.038.03.073.063.111.092l0,0a.653.653,0,0,1,.181.819l0,0a.493.493,0,0,0-.026.076l-.009-.005a1.849,1.849,0,0,1-1.084,1.126l.018.01a1.125,1.125,0,0,0-.6.486,1.145,1.145,0,0,0,1.983,1.145,1.125,1.125,0,0,0,.122-.76l.018.01a1.85,1.85,0,0,1,.433-1.5l-.009-.005a.5.5,0,0,0,.053-.06l0,0a.653.653,0,0,1,.8-.253l0,0c.044.018.091.032.135.05q.131.052.264.1c.075.027.15.056.226.081s.181.053.272.079.173.048.26.07.183.048.275.068.157.029.235.043.186.033.279.047c.047.007.094.018.141.025h-.005a.653.653,0,0,1,.566.619h0a.5.5,0,0,0,.016.078h-.011a1.849,1.849,0,0,1-.376,1.517h.02a1.125,1.125,0,0,0-.274.719,1.145,1.145,0,1,0,2.29,0,1.125,1.125,0,0,0-.274-.719h.02a1.849,1.849,0,0,1-.376-1.517h-.011a.5.5,0,0,0,.016-.078h0a.653.653,0,0,1,.566-.619h-.005c.047-.006.094-.018.141-.025q.14-.021.279-.047c.078-.014.158-.026.235-.043s.183-.045.275-.068.174-.045.26-.07.182-.05.272-.079.15-.054.226-.081.177-.064.264-.1c.045-.018.091-.031.135-.05l0,0a.653.653,0,0,1,.8.253l0,0a.5.5,0,0,0,.053.06l-.009.005a1.85,1.85,0,0,1,.433,1.5l.018-.01a1.125,1.125,0,0,0,.122.76A1.145,1.145,0,0,0,17.806,21.4a1.125,1.125,0,0,0-.6-.486l.018-.01a1.849,1.849,0,0,1-1.084-1.126l-.009.005a.493.493,0,0,0-.026-.076l0,0a.653.653,0,0,1,.181-.819l0,0c.038-.029.073-.063.111-.092q.111-.088.218-.18c.061-.052.123-.1.182-.155s.136-.13.2-.2.128-.126.191-.191.133-.134.2-.2.1-.122.155-.182.121-.144.18-.218c.03-.037.063-.072.092-.11l0,0a.653.653,0,0,1,.819-.181l0,0a.5.5,0,0,0,.076.025l-.005.009A1.849,1.849,0,0,1,19.832,18.3l.01-.018a1.124,1.124,0,0,0,.486.6A1.145,1.145,0,0,0,21.473,16.9ZM19.53,12.219c0-.108-.006-.216-.011-.325s-.012-.206-.021-.309c-.006-.065-.01-.131-.017-.2-.011-.1-.028-.206-.043-.309s-.029-.186-.047-.279l-.009-.051c.03,0,.058-.009.089-.009a1.567,1.567,0,0,1,0,3.133c-.03,0-.059-.007-.089-.009l.009-.051q.026-.139.047-.279c.015-.1.032-.206.043-.309.007-.065.011-.131.017-.2.009-.1.016-.206.021-.309s.01-.217.011-.325c0-.03,0-.058,0-.088S19.53,12.249,19.53,12.219ZM20.707,6.39a.388.388,0,1,1-.142.53A.388.388,0,0,1,20.707,6.39ZM16.479,2.446a.388.388,0,1,1,.142.53A.388.388,0,0,1,16.479,2.446Zm-10.633.53a.388.388,0,1,1,.142-.53A.388.388,0,0,1,5.847,2.976ZM1.9,6.92a.388.388,0,1,1-.142-.53A.388.388,0,0,1,1.9,6.92Zm1.035,5.475c0,.108.006.216.011.325s.012.206.021.309c.006.065.01.131.017.2.011.1.028.206.043.309s.029.186.047.279l.009.051c-.03,0-.058.009-.089.009A1.567,1.567,0,1,1,3,10.74c.03,0,.059.007.089.009l-.009.051q-.026.139-.047.279c-.015.1-.032.206-.043.309-.007.065-.011.131-.017.2-.009.1-.016.206-.021.309s-.01.217-.011.325c0,.03,0,.058,0,.088S2.938,12.365,2.938,12.395ZM1.761,18.224a.388.388,0,1,1,.142-.53A.388.388,0,0,1,1.761,18.224Zm4.228,3.944a.388.388,0,1,1-.142-.53A.388.388,0,0,1,5.989,22.167Zm10.633-.53a.388.388,0,1,1-.142.53A.388.388,0,0,1,16.621,21.638ZM11.234.757a.388.388,0,1,1-.388.388A.388.388,0,0,1,11.234.757Zm0,23.1a.388.388,0,1,1,.388-.388A.388.388,0,0,1,11.234,23.857Zm0-4.447a3.4,3.4,0,0,1-3.4-3.4,3.079,3.079,0,0,1,.07-.68,4.943,4.943,0,0,0,6.66,0,3.079,3.079,0,0,1,.07.68A3.4,3.4,0,0,1,11.234,19.41Zm3.137-4.7,0,.006a4.372,4.372,0,0,1-6.28,0l0-.006a3,3,0,1,1,3.137-4.181,3,3,0,1,1,3.137,4.181Zm6.865,3.368a.388.388,0,1,1-.142-.53A.388.388,0,0,1,21.236,18.082Z"/>
    <path class="cls-1"
          d="M8.49,9.636A2.112,2.112,0,1,0,10.6,11.748,2.112,2.112,0,0,0,8.49,9.636Zm0,2.793a.681.681,0,1,1,.681-.681A.682.682,0,0,1,8.49,12.43Z"/>
    <path class="cls-1"
          d="M13.978,9.636a2.112,2.112,0,1,0,2.112,2.112A2.112,2.112,0,0,0,13.978,9.636Zm0,2.793a.681.681,0,1,1,.681-.681A.682.682,0,0,1,13.978,12.43Z"/>
  </g>
</svg>
