<svg xmlns="http://www.w3.org/2000/svg" xmlns:xlink="http://www.w3.org/1999/xlink" viewBox="0 0 549.353 715.8059"><defs><style>.cls-1,.cls-10,.cls-4,.cls-7,.cls-8,.cls-9{fill:none;}.cls-2,.cls-5{fill:#fff;}.cls-3{fill:#333;}.cls-10,.cls-4,.cls-5{stroke:#333;}.cls-10,.cls-4{stroke-linecap:round;}.cls-4{stroke-linejoin:round;stroke-width:5px;}.cls-5{fill-opacity:0.2;stroke-width:4.1884px;}.cls-10,.cls-5,.cls-7,.cls-8,.cls-9{stroke-miterlimit:10;}.cls-6{clip-path:url(#clip-path);}.cls-7,.cls-8,.cls-9{stroke:#fff;}.cls-7{stroke-width:14px;opacity:0.5;}.cls-8{stroke-width:12.4452px;opacity:0.3;}.cls-9{stroke-width:2.872px;opacity:0.4;}.cls-10{stroke-width:4px;}</style><clipPath id="clip-path"><circle class="cls-1" cx="300.4352" cy="131.3598" r="23.7251"/></clipPath></defs><g id="Layer_18" data-name="Layer 18"><path class="cls-2" d="M263.0389,683.616a3.553,3.553,0,1,0-3.553,3.5532A3.5527,3.5527,0,0,0,263.0389,683.616Z"/><path class="cls-3" d="M272.566,153.0914a5.0017,5.0017,0,0,1-9.3887,2.3942v-.0171a27.5989,27.5989,0,0,0,7.32-6.3959A4.931,4.931,0,0,1,272.566,153.0914Zm5.7287-4.0188a4.9307,4.9307,0,0,0-2.0692,4.0188,5.0016,5.0016,0,0,0,9.3886,2.3942v-.0171A27.5985,27.5985,0,0,1,278.2947,149.0726Zm-29.9411-24.4109a6.4634,6.4634,0,1,0,6.4633,6.4634,6.4706,6.4706,0,0,0-6.4633-6.4634m0-13.5791a20.0425,20.0425,0,1,1-20.0425,20.0425,20.0424,20.0424,0,0,1,20.0425-20.0425Zm127.1789,83.73a10.8636,10.8636,0,0,1-14.84,3.9761,10.9859,10.9859,0,0,1-4.7012-5.5044,18.2076,18.2076,0,0,0-11.3774-10.5787c-3.2388-1.1215-5.9426-.6665-7.7744,1.7168l.0588-.102a78.7244,78.7244,0,0,1-125.0088,0l.0589.102c-1.8316-2.3833-4.5354-2.8383-7.7744-1.7168a18.2073,18.2073,0,0,0-11.3772,10.5787,10.9853,10.9853,0,0,1-4.7014,5.5044,10.8634,10.8634,0,1,1-3.7486-20.14c6.2446.8057,10.3291-.8779,14.8528-4.5586,2.3145-1.8833,3.5247-4.771,2.4192-7.5307-.2827-.6822-.5366-1.3794-.8008-2.0708a28.4427,28.4427,0,1,1,.002-56.1309c.2607-.6826.5107-1.3706.79-2.0439,1.1292-2.7671.1721-5.3267-2.41-7.563a18.2085,18.2085,0,0,0-14.85-4.5635,10.9856,10.9856,0,0,1-7.1176-1.3193A10.8634,10.8634,0,1,1,192.8,79.5519c2.4245,5.811,5.9252,8.5063,11.3745,10.5834,2.8083,1.07,5.9428.6661,7.7744-1.7163l-.0767.1324a79.2148,79.2148,0,0,1,14.657-14.6553l-.1367.0791c2.3828-1.8316,2.8381-4.5357,1.7165-7.7744A18.2061,18.2061,0,0,0,217.53,54.8238a10.9877,10.9877,0,0,1-5.5044-4.7016,10.8633,10.8633,0,1,1,20.14-3.7486c-.8059,6.2447.8781,10.3291,4.5588,14.8526,1.8967,2.3315,4.8132,3.5488,7.5911,2.4008l-.0025.0015c1.1531-.477,2.3245-.9175,3.5044-1.34,3.22-1.6436,6.09-2.7178,9.189-6.438,3.94-4.73,4.2063-9.0728,5.4543-8.8433,1.3863.2554,2.0882,5.7793,1.0581,11.4375.2393-.0332.4761-.0737.7161-.1045h-.1892c2.9795-.395,4.7258-2.5088,5.3738-5.8745a18.2087,18.2087,0,0,0-3.4727-15.1426,10.983,10.983,0,0,1-2.416-6.8237,10.8632,10.8632,0,1,1,19.3157,6.8237c-3.82,5.0054-4.4038,9.3848-3.4783,15.1426a7.5465,7.5465,0,0,0,2.2969,4.4361,23.99,23.99,0,0,0,8.8073-6.58c4.6348-5.5567,5.263-10.7774,6.4705-10.4761,1.5317.3823,1.1912,8.9546-.8393,16.4272-.3541,1.3033-.751,2.53-1.17,3.688a15.4579,15.4579,0,0,0,3.928-1.2314c4.6176-2.12,6.5947-5.2383,7.2685-4.6821.749.6181-1.3125,4.7832-4.219,8.5766q1.2921.4812,2.5637,1.0044l-.0022-.0015c2.7776,1.148,5.6941-.0693,7.5911-2.4008,3.6807-4.5235,5.3645-8.6079,4.5589-14.8526a10.8632,10.8632,0,1,1,20.14,3.7486,10.9854,10.9854,0,0,1-5.5041,4.7016A18.2056,18.2056,0,0,0,320.68,66.2008c-1.1218,3.2387-.6665,5.9428,1.7165,7.7744l-.1369-.0791a79.2148,79.2148,0,0,1,14.657,14.6553l-.0767-.1324c1.8318,2.3824,4.9663,2.7867,7.7744,1.7163,5.45-2.0771,8.95-4.7724,11.3745-10.5834a10.8633,10.8633,0,1,1,15.5674,13.3164,10.9848,10.9848,0,0,1-7.1174,1.3193,18.2082,18.2082,0,0,0-14.85,4.5635c-2.582,2.2363-3.5393,4.7959-2.41,7.563.2785.6723.5283,1.3593.7885,2.041a28.4436,28.4436,0,1,1,0,56.1411c-.2635.6894-.5164,1.3843-.7984,2.0644-1.1049,2.7593.1053,5.647,2.42,7.53,4.5235,3.6807,8.6079,5.3643,14.8526,4.5586a10.8634,10.8634,0,0,1,11.091,16.1641ZM362.939,85.2994a3.6784,3.6784,0,1,0,1.3464-5.0244A3.6783,3.6783,0,0,0,362.939,85.2994ZM325.5157,47.8761a3.6784,3.6784,0,1,0-1.3462-5.0249A3.6787,3.6787,0,0,0,325.5157,47.8761ZM224.6194,42.8512a3.6784,3.6784,0,1,0-1.3464,5.0249A3.6779,3.6779,0,0,0,224.6194,42.8512ZM184.5035,80.275a3.6782,3.6782,0,1,0,1.3462,5.0244A3.6782,3.6782,0,0,0,184.5035,80.275ZM185.85,187.5421a3.6783,3.6783,0,1,0-1.3462,5.0249A3.678,3.678,0,0,0,185.85,187.5421ZM270.7161,30.5a3.6784,3.6784,0,1,0,3.6782-3.6782A3.6784,3.6784,0,0,0,270.7161,30.5ZM197.05,151.2491a78.4173,78.4173,0,0,1,0-29.6484c-.2695-.0147-.5359-.041-.8091-.041a14.8652,14.8652,0,1,0,0,29.73C196.5137,151.29,196.78,151.2638,197.05,151.2491Zm109.5908,20.3335a32.1693,32.1693,0,0,0-1.0843-8.2724,46.9837,46.9837,0,0,1-62.3239,0,32.244,32.244,0,1,0,63.4082,8.2724Zm22.31-40.4575a28.5154,28.5154,0,0,0-54.5569-11.6182A28.514,28.514,0,1,0,237.75,157.588l-.0083-.01a28.3677,28.3677,0,0,0,9.4441,2.0039,41.645,41.645,0,0,0,54.4182,0,28.3758,28.3758,0,0,0,9.4443-2.0039l-.0083.01A28.5083,28.5083,0,0,0,328.9512,131.1251Zm22.7881-9.5244a78.4254,78.4254,0,0,1,0,29.6484c.2695.0147.5359.041.8091.041a14.8652,14.8652,0,0,0,0-29.73C352.2752,121.56,352.0088,121.586,351.7393,121.6007Zm16.2246,64.5952A3.6784,3.6784,0,1,0,369.31,191.22,3.6783,3.6783,0,0,0,367.9639,186.1959ZM300.4354,125.381a5.7441,5.7441,0,1,0,5.7436,5.7441,5.7506,5.7506,0,0,0-5.7436-5.7441m0-12.0674a17.8115,17.8115,0,1,1-17.8116,17.8115,17.8114,17.8114,0,0,1,17.8116-17.8115Z"/><path class="cls-2" d="M70.0274,244.9869a7.5532,7.5532,0,1,1,7.5527-7.5537A7.5616,7.5616,0,0,1,70.0274,244.9869Z"/><path class="cls-3" d="M70.0274,233.881a3.553,3.553,0,1,1-3.553,3.5527,3.5527,3.5527,0,0,1,3.553-3.5527m0-8a11.553,11.553,0,1,0,11.5532,11.5527A11.566,11.566,0,0,0,70.0274,225.881Z"/><line class="cls-4" x1="68.6401" y1="231.285" x2="24.2846" y2="50.0882"/><path class="cls-3" d="M273.2758,220.3557l-9.8625,7.1656a2.4592,2.4592,0,0,0-.8934,2.75l3.7672,11.5942a2.4592,2.4592,0,0,0,2.3389,1.6993h12.1908a2.4592,2.4592,0,0,0,2.3389-1.6993l3.7671-11.5942a2.4591,2.4591,0,0,0-.8933-2.75l-9.8626-7.1656A2.46,2.46,0,0,0,273.2758,220.3557Z"/><path class="cls-3" d="M238.648,286.7677l3.3054.43-1.3386,3.0528-6.2676,14.291a134.6743,134.6743,0,0,0,3.5559,23.6948,133.0147,133.0147,0,0,0,8.0105,23.3491,135.5186,135.5186,0,0,0,27.3821,39.8291L255.219,303.9107q-8.9388-43.746-17.5046-87.2968l-.3826.0947c-.71.1865-1.4187.3779-2.1218.5879-1.4084.4136-2.8.8823-4.1763,1.3921a62.5069,62.5069,0,0,0-8.01,3.6367,64.2817,64.2817,0,0,0-13.0195,9.3159,210.6239,210.6239,0,0,1,10.5757,52.773Z"/><path class="cls-3" d="M266.16,348.8336l8.0461,43.7441,15.6559-89.83-6.9974-55.4451a1.8276,1.8276,0,0,0-1.8083-1.5991L268.35,245.67a1.8271,1.8271,0,0,0-1.8111,1.5479l-8.729,56.3618Z"/><path class="cls-3" d="M323.3167,222.0826a63.25,63.25,0,0,0-8.0674-3.5181c-1.3835-.4892-2.782-.9379-4.1965-1.3305-.7061-.2-1.4177-.38-2.13-.5567l-.3851-.0893q-7.9687,43.6787-16.3132,87.4848l-17.0525,88.5049A135.69,135.69,0,0,0,302.42,351.7115a133.1089,133.1089,0,0,0,7.62-23.497,134.6955,134.6955,0,0,0,3.156-23.7549l-6.4778-14.2-1.3835-3.0328,3.2988-.479,18.0317-2.6186a210.6072,210.6072,0,0,1,9.8013-52.9248A63.2752,63.2752,0,0,0,323.3167,222.0826Z"/><path class="cls-3" d="M297.1521,673.9723l.0206-5.4893q4.3131.0864,8.5014.1069c-5.0354-21.788-9.4956-44.667-13.1562-68.5957q-1.3275-8.6769-2.4668-17.2041l-2.2962-17.2231c-1.41-11.4961-2.8349-22.9878-4.0683-34.5q-3.7845-34.5272-6.4492-69.148c-.86-11.5415-1.6575-23.0869-2.2278-34.646-.545-10.934-1.05-21.8886-.8369-32.8374-9.95-10.6523-24.8821-29.7739-30.8257-41.6284a136.4024,136.4024,0,0,1-9.2329-23.563,139.0961,139.0961,0,0,1-4.7937-24.95l-.0005-.0058-.0625-.59.2656-.6054,5.1741-11.7979-16.7942-2.1875-2.0493-.2671-.1233-2.0625a205.7285,205.7285,0,0,0-8.5591-47.6206,75.7837,75.7837,0,0,0-13.9461,11.5152c-7.2,7.5908-8.6723,12.3637-18.13,29.0361-22.1177,38.99-33.1768,58.4858-45.41,57.9853-14.5068-.5932-26.5855-28.4262-30.7339-37.9858-3.7021-8.53-3.8926-12.9009-8.9785-23.8271a141.6933,141.6933,0,0,0-9.0518-16.4771L76.627,243.0953l-8.7031,2.291,1.9856,7.5406a37.53,37.53,0,0,0-2.0369,3.2705,46.1682,46.1682,0,0,0-4.835,16.9209c-2.3247,29.5175,6.2164,56.9785,6.2164,56.9785,22.05,63.8369,28.1972,77.5639,29.4384,77.18.75-.2325-.5776-5.5318-3.1079-19.9424-4.603-26.2168-3.8105-29.1934-8.5469-57.7554-2.5478-15.3652-4.8461-26.9814-6.7334-36.5181-.1831-.9253-.3647-1.8227-.5473-2.7353L87.85,321.0621c10.82,67.0151,10.438,101.7842,25.95,106.0708,8.083,2.2339,18.4859-5.8433,39.3672-21.8989,21.3667-16.4292,30.2-29.711,39.0215-26.9351,3.438,1.0821,7.7339,4.8736,10.36,17.7549q-11.223,128.907-22.4463,257.8135c15.6152,3.63,32.6328,6.8887,50.9385,9.4131q12.2358,1.6875,23.88,2.7749l.0332,6.9355a11.5519,11.5519,0,1,0,9-.0273l-.0293-6.127q12.5181.9865,24.2478,1.3941l-.0215,5.749a11.5516,11.5516,0,1,0,9-.0073ZM259.4859,687.169a3.553,3.553,0,1,1,3.553-3.5532A3.5531,3.5531,0,0,1,259.4859,687.169Zm8.2827-99.5044-.2134,8.5342-.1294,4.2661-.071,2.1324c-.0672.7446-.1035,1.5083-.2166,2.2553a18.857,18.857,0,0,1-3.4946,8.3433,19.5066,19.5066,0,0,1-7.04,5.7666,18.7022,18.7022,0,0,1-8.9595,1.7842c-.7949-.0137-1.4758-.0908-2.1885-.1494l-2.1255-.1836-4.2507-.3677-8.4956-.8023c-.7129-.0712-1.3931-.1167-2.1787-.2417-.38-.0581-.763-.1-1.14-.1738l-1.1226-.269a22.2305,22.2305,0,0,1-2.1977-.7,20.0476,20.0476,0,0,1-2.0777-.9986,18.8618,18.8618,0,0,1-9.6938-14.7031c-.0606-.7475-.0755-1.5283-.0838-2.2524l.0318-2.1338.0749-4.2671.1975-8.5347c.1736-5.69.3379-11.38.6382-17.07.366,5.687.5957,11.3745.8347,17.062l.2959,8.5318.1241,4.2661.0561,2.1328c.0381.6958.0777,1.3393.157,2.0049a16.5894,16.5894,0,0,0,8.7129,12.4624c.563.3354,1.1924.5337,1.7793.8183a19.5327,19.5327,0,0,0,1.87.5762l.9536.2217c.32.0605.6468.09.97.1372.62.1,1.36.1479,2.063.2114l8.5015.7359,4.2475.4023,2.124.2007c.7041.0649,1.4375.1494,2.0657.1587a16.3143,16.3143,0,0,0,7.6223-1.4278,16.7764,16.7764,0,0,0,6.1553-4.7954,17.3032,17.3032,0,0,0,3.2754-7.1411c.126-.6528.1809-1.3135.2732-1.9809l.1582-2.128.33-4.2549.7044-8.5078c.51-5.6694,1.0134-11.3393,1.6494-17.0024C267.9791,576.2818,267.87,581.9732,267.7686,587.6646ZM292.6592,688.17a3.5532,3.5532,0,1,1,3.553-3.5532A3.5532,3.5532,0,0,1,292.6592,688.17Z"/><path class="cls-3" d="M361.3975,396.9464c6.5947-8.9585,21.2266-28.836,22.1006-53.8706.2539-7.2681-3.6255-19.1026-11.3955-42.4751-15.6455-47.0645-21.22-54.0352-26.7847-59.0308a57.406,57.406,0,0,0-5.4829-4.3447A205.7187,205.7187,0,0,0,331.55,286.422l-.093,2.0644-2.0452.2969-16.76,2.4341,5.3464,11.72.2756.604-.0549.5889,0,.0058a139.0846,139.0846,0,0,1-4.48,25.0039,136.3086,136.3086,0,0,1-8.9331,23.6636c-5.7256,11.7857-19.219,31.64-30.04,42.27-.1735-.1836-.361-.3911-.538-.58.1054,10.9258.9231,21.8272,1.7805,32.7139.9023,11.5254,2.0312,23.0332,3.2219,34.5317q3.6174,34.4921,8.4265,68.8326c1.5615,11.45,3.3137,22.8706,5.0493,34.291l2.7835,17.1c.9074,5.7026,1.9729,11.3774,2.9511,17.0664,3.7842,21.186,7.9522,42.2969,12.7981,63.2158a233.3816,233.3816,0,0,0,52.2771-11.6113l-1.5007-23.4029-.239-3.7285Q352.7518,521.69,343.7288,419.878c-1.8625-15.98-5.1886-42.3455-7.1105-58.324,2.1594,14.5864,6.7439,38.6185,8.87,53.2142A115.0548,115.0548,0,0,0,361.3975,396.9464Zm-26.2241,78.4a13.8605,13.8605,0,0,1-4.25,4.8818,13.2609,13.2609,0,0,1-6.0869,2.3071c-.5676.0835-1.0307.107-1.5232.1485l-1.4653.1162-2.9307.2329-5.8662.3975a18.1625,18.1625,0,0,1-3.1689.0273,15.6654,15.6654,0,0,1-1.626-.24,13.5881,13.5881,0,0,1-1.575-.4654,13.3494,13.3494,0,0,1-8.4472-9.2265c-.1245-.5147-.2219-1.0655-.305-1.562l-.2043-1.4561-.3975-2.9145-.748-5.8374c-.4573-3.8985-.9238-7.7955-1.2561-11.7154.989,3.8076,1.844,7.6382,2.708,11.4673l1.2344,5.7539.5935,2.8809.291,1.4414c.1079.4638.2075.8755.3367,1.3056a11.0755,11.0755,0,0,0,7.115,7.1753c.4043.1568.8376.2134,1.2509.337a12.9351,12.9351,0,0,0,1.2825.1708,15.178,15.178,0,0,0,2.7012-.0654l5.8615-.4643,2.9332-.1978,1.4665-.0991c.4849-.0337,1.0012-.0586,1.4036-.12a10.87,10.87,0,0,0,4.8254-1.7373,11.14,11.14,0,0,0,3.5352-3.7793,11.6892,11.6892,0,0,0,1.4221-5.0328c.0168-.4438-.0144-.8837-.0208-1.3364l-.1179-1.4663-.2224-2.9331-.4-5.8711c-.2263-3.9184-.4594-7.8364-.56-11.7685.7581,3.86,1.3838,7.7343,2.0168,11.6079l.8887,5.8173.4219,2.9112.2043,1.4565c.044.5249.11,1.0635.1216,1.5977A13.2426,13.2426,0,0,1,335.1734,475.3468Z"/><path class="cls-3" d="M273.836,399.6578a7.1763,7.1763,0,1,1,7.1758-7.1758A7.1835,7.1835,0,0,1,273.836,399.6578Z"/><path class="cls-2" d="M273.836,386.3053a6.1763,6.1763,0,1,1-6.1763,6.1762,6.1832,6.1832,0,0,1,6.1763-6.1762m0-2a8.1763,8.1763,0,1,0,8.1763,8.1762,8.1763,8.1763,0,0,0-8.1763-8.1762Z"/><circle class="cls-5" cx="300.4352" cy="131.3598" r="24.2098"/><g class="cls-6"><line class="cls-7" x1="314.4765" y1="89.6234" x2="259.847" y2="144.2528"/><line class="cls-8" x1="333.3831" y1="109.894" x2="277.1137" y2="166.1634"/><line class="cls-9" x1="336.3639" y1="110.7429" x2="277.306" y2="169.8009"/></g><path class="cls-10" d="M325.0986,152.0288v51.7649a12.82,12.82,0,0,0,12.82,12.82h0a12.82,12.82,0,0,0,12.82-12.82V160.3992"/></g></svg>