<svg xmlns="http://www.w3.org/2000/svg" viewBox="0 0 48 48"><title>im-alert-network-icon</title><g id="Layer_2" data-name="Layer 2"><g id="originals"><circle cx="24" cy="24" r="23" style="fill:#fc2"/><path d="M24,2A22,22,0,1,1,2,24,22,22,0,0,1,24,2m0-2A24,24,0,1,0,48,24,24.02719,24.02719,0,0,0,24,0Z" style="fill:#333"/><circle cx="18.5" cy="9.5" r="2.5" style="fill:#333"/><circle cx="8.5" cy="25.5" r="2.5" style="fill:#333"/><circle cx="13" cy="34" r="2" style="fill:#333"/><circle cx="23.5" cy="39.5" r="2.49988" style="fill:#333"/><circle cx="37" cy="32" r="2" style="fill:#333"/><circle cx="35" cy="14" r="2" style="fill:#333"/><line x1="37" y1="32" x2="24" y2="24" style="fill:none;stroke:#333;stroke-miterlimit:10"/><line x1="23.5" y1="40" x2="23.5" y2="24.5" style="fill:none;stroke:#333;stroke-miterlimit:10"/><line x1="13.5" y1="33.5" x2="23.5" y2="24.5" style="fill:none;stroke:#333;stroke-miterlimit:10"/><line x1="23.5" y1="24.5" x2="8.5" y2="25.5" style="fill:none;stroke:#333;stroke-miterlimit:10"/><line x1="18.5" y1="9.5" x2="24.5" y2="25.5" style="fill:none;stroke:#333;stroke-miterlimit:10"/><line x1="35.5" y1="13.5" x2="23.5" y2="24.5" style="fill:none;stroke:#333;stroke-miterlimit:10"/><circle cx="24" cy="24" r="9" style="fill:#fc2;stroke:#333;stroke-miterlimit:10;stroke-width:2px"/><rect x="23" y="19" width="2" height="6" style="fill:#333"/><rect x="23" y="27" width="2" height="2" style="fill:#333"/></g></g></svg>